<svg xmlns="http://www.w3.org/2000/svg" viewBox="0 0 512 512" role="img" aria-labelledby="title desc">
  <title id="title">Panaon KK Youth Profiling System</title>
  <desc id="desc">Circular blue emblem for the Panaon KK youth profiling and skills matching system.</desc>
  <defs>
    <linearGradient id="navy" x1="0" y1="0" x2="1" y2="1">
      <stop offset="0" stop-color="#07152f"/>
      <stop offset="1" stop-color="#0d2b55"/>
    </linearGradient>
    <path id="topArc" d="M 82 246 A 174 174 0 0 1 430 246"/>
    <path id="bottomArc" d="M 62 300 A 196 196 0 0 0 450 300"/>
  </defs>
  <circle cx="256" cy="256" r="242" fill="#050505"/>
  <circle cx="256" cy="256" r="231" fill="url(#navy)" stroke="#0797f5" stroke-width="8"/>
  <circle cx="256" cy="256" r="192" fill="none" stroke="#0797f5" stroke-width="6"/>
  <circle cx="256" cy="256" r="168" fill="none" stroke="#0797f5" stroke-width="5"/>
  <path d="M88 244h336M256 88v118M167 104c35 58 35 119 0 178M345 104c-35 58-35 119 0 178" fill="none" stroke="#0797f5" stroke-width="4" opacity=".8"/>
  <text fill="#f8fafc" font-family="Arial, sans-serif" font-size="23" font-weight="700" letter-spacing="1.2"><textPath href="#topArc" startOffset="50%" text-anchor="middle">PANAON YOUTH PROFILING SYSTEM</textPath></text>
  <text fill="#f8fafc" font-family="Arial, sans-serif" font-size="17" font-weight="700" letter-spacing=".7"><textPath href="#bottomArc" startOffset="50%" text-anchor="middle">SKILLS MATCHING AND OPPORTUNITIES</textPath></text>
  <path d="M161 238c-10-47 14-83 56-86 24-2 42 11 54 29 16-25 43-40 68-31 34 12 45 50 27 88-10 21-28 41-49 55l-45 31-44-30c-32-22-59-32-67-56Z" fill="#f8fafc" stroke="#0a1b3b" stroke-width="8"/>
  <path d="M172 194c17-31 50-45 78-25 10 7 18 16 23 28-18-16-38-22-62-17-17 4-28 12-39 29Z" fill="#07152f"/>
  <path d="M295 179c18-28 51-35 73-13 14 14 19 33 16 52-7-16-19-28-35-35-17-7-34-7-54-4Z" fill="#07152f"/>
  <path d="M142 319c33-32 69-43 113-40 42 3 78 16 115 45l-42 48-72-41-72 42Z" fill="#087ee8" stroke="#07152f" stroke-width="8"/>
  <path d="M256 313l-42 52 42 61 42-61Z" fill="#f8fafc" stroke="#07152f" stroke-width="7"/>
  <path d="M145 393c40-4 75 7 111 34 35-27 72-39 112-34l-40 42H185Z" fill="#f8fafc" stroke="#07152f" stroke-width="7"/>
  <circle cx="256" cy="315" r="17" fill="#087ee8"/>
  <circle cx="112" cy="269" r="10" fill="#ffc400"/><circle cx="400" cy="269" r="10" fill="#80c91b"/>
</svg>
